:SAMPLES-PER-SECOND 30
:FULLY-SPECIFIED
:DEGREES
1539
root  31.9399 39.6089 -7.53382 -164.517 -71.3485 164.49
RightUpLeg  4.3251 -14.8548 -12.2744
RightLeg  6.76958 -16.447 2.21204
RightFoot  -7.6395 -0.236854 5.71638
RightToes  6.35927e-011 1.30204e-014 -6.03759e-014
Spine  7.90418 0.973373 12.2415
Spine1  2.76 3.49008 -9.39984
HEad  73.8553 12.1366 -152.821
LeftShoulder1  -0.248231 4.17695 -30.7388
LeftArm  -7.97946 19.7158 -40.9835
LeftForeArm  22.7435 -10.8388 -6.08635
LeftHand  -0.0255276 7.37537 0.799594
RightShoulder  -0.550416 -5.16573 26.3442
RightArm  15.8296 0.281452 42.7488
RightForeArm  -0.304929 13.7302 6.44492
RightHand  -0.292238 3.3499 -4.12528
LeftUpLeg  -14.6531 2.892 -2.12389
LeftLeg  2.49441 8.33447 -1.90542
LeftFoot  -2.61748 0.293821 -3.65187
LeftToes  -7.16024e-010 4.79583e-011 -5.98286e-011
1540
root  31.5369 39.5812 -7.62366 -163.658 -73.4859 163.755
RightUpLeg  5.9953 -14.6137 -12.0264
RightLeg  5.51131 -18.5391 2.56956
RightFoot  -7.74593 -0.251159 6.31416
RightToes  6.35927e-011 1.30204e-014 -6.03759e-014
Spine  7.33054 1.09073 11.8821
Spine1  3.48695 3.63318 -9.49991
HEad  75.8975 10.4859 -150.328
LeftShoulder1  -0.196731 4.03976 -30.5772
LeftArm  -8.16318 19.8301 -41.3574
LeftForeArm  23.1589 -10.5915 -6.07469
LeftHand  -0.0402667 7.37223 0.00321965
RightShoulder  -0.579326 -5.24094 26.599
RightArm  15.7822 0.541096 43.8886
RightForeArm  1.04179 12.8814 6.72083
RightHand  -0.297858 3.09101 -4.30923
LeftUpLeg  -13.9247 2.60953 -1.65078
LeftLeg  -1.89743 12.2998 -1.68976
LeftFoot  -1.77344 0.254041 -2.90343
LeftToes  -7.16024e-010 4.79583e-011 -5.98286e-011
1541
root  31.0445 39.4945 -7.67514 -163.434 -75.5265 163.531
RightUpLeg  7.53086 -14.3967 -11.7182
RightLeg  5.0685 -20.6099 2.70237
RightFoot  -8.08424 -0.244137 6.64045
RightToes  6.35927e-011 1.30204e-014 -6.03759e-014
Spine  7.05673 1.13139 11.4275
Spine1  3.82064 3.64074 -9.3136
HEad  77.7092 7.89144 -147.46
LeftShoulder1  -0.18085 3.99797 -30.4689
LeftArm  -8.3599 19.926 -41.5187
LeftForeArm  23.0057 -10.3611 -6.07634
LeftHand  -0.0323213 8.44734 0.440929
RightShoulder  -0.605594 -5.30366 26.9169
RightArm  15.9059 0.33556 44.8272
RightForeArm  1.48728 12.7416 6.80412
RightHand  -0.304602 2.85858 -4.50788
LeftUpLeg  -13.4228 2.89579 -1.08508
LeftLeg  -4.05302 16.6088 -2.00412
LeftFoot  -1.3718 0.216632 -2.38018
LeftToes  -7.16024e-010 4.79583e-011 -5.98286e-011
1542
root  30.4652 39.3718 -7.68354 -163.134 -77.4543 163.201
RightUpLeg  9.13461 -14.3035 -11.629
RightLeg  4.84871 -22.2979 2.888
RightFoot  -8.68158 -0.233373 7.5308
RightToes  6.35927e-011 1.30204e-014 -6.03759e-014
Spine  6.89288 1.08196 10.7691
Spine1  3.86521 3.54297 -9.13493
HEad  79.3922 2.87434 -143.444
LeftShoulder1  -0.195041 4.03581 -30.5304
LeftArm  -8.39423 20.0544 -41.2333
LeftForeArm  22.6009 -10.2601 -6.10031
LeftHand  0.00439261 9.50977 1.53953
RightShoulder  -0.627643 -5.35578 27.176
RightArm  16.1331 -0.314282 45.6488
RightForeArm  1.45115 13.0876 6.73838
RightHand  -0.296397 2.75642 -4.44066
LeftUpLeg  -13.327 3.38328 -0.744257
LeftLeg  -3.88255 20.9171 -2.22758
LeftFoot  -0.4034 0.15685 -1.61946
LeftToes  -7.16024e-010 4.79583e-011 -5.98286e-011
1543
root  29.7823 39.2249 -7.63607 -161.876 -79.1037 161.853
RightUpLeg  10.9143 -14.4118 -12.0696
RightLeg  4.6747 -23.0669 3.18099
RightFoot  -9.50982 -0.212825 9.25739
RightToes  6.35927e-011 1.30204e-014 -6.03759e-014
Spine  6.35804 1.04133 9.92323
Spine1  4.29567 3.53028 -9.29233
HEad  79.9474 2.72136 -141.505
LeftShoulder1  -0.216003 4.09216 -30.5832
LeftArm  -8.38432 20.0758 -40.7187
LeftForeArm  22.4676 -10.2394 -6.08272
LeftHand  0.0204833 9.22676 2.02156
RightShoulder  -0.646644 -5.40171 27.3696
RightArm  16.3559 -1.13848 46.4251
RightForeArm  1.26674 13.5814 6.61423
RightHand  -0.287982 2.8782 -4.26613
LeftUpLeg  -13.4538 3.72037 -0.919608
LeftLeg  -2.24866 24.2856 -1.87269
LeftFoot  2.24212 -0.0548284 0.293929
LeftToes  -7.16024e-010 4.79583e-011 -5.98286e-011
1544
root  28.99 39.0755 -7.52034 -158.301 -80.3685 157.869
RightUpLeg  12.8205 -15.1394 -13.4476
RightLeg  5.2756 -22.8758 3.0856
RightFoot  -10.2244 -0.175777 10.7813
RightToes  6.35927e-011 1.30204e-014 -6.03759e-014
Spine  5.59731 1.0472 8.70348
Spine1  5.14284 3.61087 -9.65265
HEad  77.1234 24.2436 -148.826
LeftShoulder1  -0.242592 4.16466 -30.5751
LeftArm  -8.36573 19.8804 -40.123
LeftForeArm  22.5383 -10.2545 -6.03124
LeftHand  -0.00355928 8.04688 1.64256
RightShoulder  -0.65735 -5.42045 27.6014
RightArm  16.6773 -1.89239 47.062
RightForeArm  1.15511 13.9619 6.54695
RightHand  -0.286375 3.07258 -4.15927
LeftUpLeg  -13.3405 3.89314 -1.66303
LeftLeg  -0.05437 25.3258 -1.32694
LeftFoot  5.61099 -0.51709 3.23528
LeftToes  -7.16024e-010 4.79583e-011 -5.98286e-011
1545
root  28.1316 38.9434 -7.34411 -149.171 -81.4456 147.864
RightUpLeg  14.9893 -17.5784 -16.3374
RightLeg  7.08805 -21.1966 2.20255
RightFoot  -10.5997 -0.152901 12.5292
RightToes  6.35927e-011 1.30204e-014 -6.03759e-014
Spine  5.25192 0.947133 6.62352
Spine1  5.77845 3.49602 -9.81375
HEad  72.8688 33.7979 -152.693
LeftShoulder1  -0.272636 4.24445 -30.6758
LeftArm  -8.3157 19.3839 -39.3759
LeftForeArm  22.4096 -10.1943 -6.01155
LeftHand  -0.0183326 7.38044 1.20368
RightShoulder  -0.65492 -5.40024 27.8351
RightArm  16.9094 -2.65115 47.5403
RightForeArm  1.50495 14.0547 6.55326
RightHand  -0.279239 3.10416 -4.04835
LeftUpLeg  -12.7916 3.91296 -3.06851
LeftLeg  2.52652 23.8335 -1.0427
LeftFoot  7.2287 -0.990017 5.81297
LeftToes  -7.16024e-010 4.79583e-011 -5.98286e-011
